<svg xmlns="http://www.w3.org/2000/svg" xmlns:xlink="http://www.w3.org/1999/xlink" contentStyleType="text/css" data-diagram-type="DESCRIPTION" height="1125px" preserveAspectRatio="none" style="width:892px;height:1125px;background:#FFFFFF;" version="1.1" viewBox="0 0 892 1125" width="892px" zoomAndPan="magnify"><?plantuml 1.2026.3beta6?><defs/><g><g class="title" data-source-line="6"><text fill="#000000" font-family="Verdana" font-size="22" font-weight="700" lengthAdjust="spacing" textLength="860.3525" x="15" y="35.4209">&#1057;&#1090;&#1088;&#1091;&#1082;&#1090;&#1091;&#1088;&#1072; &#1087;&#1088;&#1086;&#1075;&#1088;&#1072;&#1084;&#1084;&#1085;&#1086;&#1075;&#1086; &#1082;&#1086;&#1084;&#1087;&#1083;&#1077;&#1082;&#1089;&#1072; &#1082;&#1086;&#1088;&#1087;&#1086;&#1088;&#1072;&#1090;&#1080;&#1074;&#1085;&#1086;&#1075;&#1086; &#1084;&#1077;&#1089;&#1089;&#1077;&#1085;&#1076;&#1078;&#1077;&#1088;&#1072;</text></g><!--cluster Client Side (React SPA)--><g class="cluster" data-qualified-name="Client Side .React SPA." data-source-line="8" id="ent0002"><rect fill="#FFFFFF" height="448.63" rx="2.5" ry="2.5" style="stroke:#000000;stroke-width:1;" width="206" x="89.6763" y="58.6094"/><text fill="#000000" font-family="Verdana" font-size="14" font-weight="700" lengthAdjust="spacing" textLength="183.7363" x="100.8081" y="73.6045">Client Side (React SPA)</text></g><!--cluster Server Side (ASP.NET Core)--><g class="cluster" data-qualified-name="Server Side .ASP.NET Core." data-source-line="14" id="ent0006"><rect fill="#FFFFFF" height="590.33" rx="2.5" ry="2.5" style="stroke:#000000;stroke-width:1;" width="481" x="319.6763" y="358.7994"/><text fill="#000000" font-family="Verdana" font-size="14" font-weight="700" lengthAdjust="spacing" textLength="217.4443" x="451.4541" y="373.7945">Server Side (ASP.NET Core)</text></g><!--cluster WebAPI Layer--><g class="cluster" data-qualified-name="Server Side .ASP.NET Core..WebAPI Layer" data-source-line="15" id="ent0007"><rect fill="#FFFFFF" height="230.74" rx="2.5" ry="2.5" style="stroke:#000000;stroke-width:1;" width="345" x="343.6763" y="401.7994"/><text fill="#000000" font-family="Verdana" font-size="14" font-weight="700" lengthAdjust="spacing" textLength="110.0313" x="461.1606" y="416.7945">WebAPI Layer</text></g><!--cluster Application Layer (CQRS)--><g class="cluster" data-qualified-name="Server Side .ASP.NET Core..Application Layer .CQRS." data-source-line="21" id="ent0011"><rect fill="#FFFFFF" height="97.3" rx="2.5" ry="2.5" style="stroke:#000000;stroke-width:1;" width="218" x="343.6763" y="681.5394"/><text fill="#000000" font-family="Verdana" font-size="14" font-weight="700" lengthAdjust="spacing" textLength="198.7754" x="353.2886" y="696.5345">Application Layer (CQRS)</text></g><!--cluster Infrastructure Layer--><g class="cluster" data-qualified-name="Server Side .ASP.NET Core..Infrastructure Layer" data-source-line="25" id="ent0013"><rect fill="#FFFFFF" height="97.29" rx="2.5" ry="2.5" style="stroke:#000000;stroke-width:1;" width="433" x="343.6763" y="827.8394"/><text fill="#000000" font-family="Verdana" font-size="14" font-weight="700" lengthAdjust="spacing" textLength="159.6396" x="480.3564" y="842.8345">Infrastructure Layer</text></g><!--cluster PostgreSQL--><g class="cluster" data-qualified-name="PostgreSQL" data-source-line="31" id="ent0016"><path d="M600.6763,1008.1294 C600.6763,998.1294 659.6763,998.1294 659.6763,998.1294 C659.6763,998.1294 718.6763,998.1294 718.6763,1008.1294 L718.6763,1090.4294 C718.6763,1100.4294 659.6763,1100.4294 659.6763,1100.4294 C659.6763,1100.4294 600.6763,1100.4294 600.6763,1090.4294 L600.6763,1008.1294" fill="#FFFFFF" style="stroke:#000000;stroke-width:1;"/><path d="M600.6763,1008.1294 C600.6763,1018.1294 659.6763,1018.1294 659.6763,1018.1294 C659.6763,1018.1294 718.6763,1018.1294 718.6763,1008.1294" fill="none" style="stroke:#000000;stroke-width:1;"/><text fill="#000000" font-family="Verdana" font-size="14" font-weight="700" lengthAdjust="spacing" textLength="92.2305" x="613.561" y="1033.1245">PostgreSQL</text></g><!--entity UI--><g class="entity" data-qualified-name="Client Side .React SPA..UI" data-source-line="9" id="ent0003"><rect fill="#FFFFFF" height="62.5938" rx="2.5" ry="2.5" style="stroke:#000000;stroke-width:1;" width="163.2041" x="111.0763" y="93.6094"/><rect fill="#FFFFFF" height="10" style="stroke:#000000;stroke-width:1;" width="15" x="254.2804" y="98.6094"/><rect fill="#FFFFFF" height="2" style="stroke:#000000;stroke-width:1;" width="4" x="252.2804" y="100.6094"/><rect fill="#FFFFFF" height="2" style="stroke:#000000;stroke-width:1;" width="4" x="252.2804" y="104.6094"/><text fill="#000000" font-family="Verdana" font-size="14" font-style="italic" lengthAdjust="spacing" textLength="57.2373" x="159.0597" y="126.6045">&#171;React&#187;</text><text fill="#000000" font-family="Verdana" font-size="14" lengthAdjust="spacing" textLength="123.2041" x="126.0763" y="142.9014">Client Application</text></g><!--entity Store--><g class="entity" data-qualified-name="Client Side .React SPA..Store" data-source-line="10" id="ent0004"><rect fill="#FFFFFF" height="62.5938" rx="2.5" ry="2.5" style="stroke:#000000;stroke-width:1;" width="173.7314" x="105.8063" y="233.1994"/><rect fill="#FFFFFF" height="10" style="stroke:#000000;stroke-width:1;" width="15" x="259.5377" y="238.1994"/><rect fill="#FFFFFF" height="2" style="stroke:#000000;stroke-width:1;" width="4" x="257.5377" y="240.1994"/><rect fill="#FFFFFF" height="2" style="stroke:#000000;stroke-width:1;" width="4" x="257.5377" y="244.1994"/><text fill="#000000" font-family="Verdana" font-size="14" font-style="italic" lengthAdjust="spacing" textLength="74.7168" x="150.3136" y="266.1945">&#171;Zustand&#187;</text><text fill="#000000" font-family="Verdana" font-size="14" lengthAdjust="spacing" textLength="133.7314" x="120.8063" y="282.4914">State Management</text></g><!--entity Axios--><g class="entity" data-qualified-name="Client Side .React SPA..Axios" data-source-line="11" id="ent0005"><rect fill="#FFFFFF" height="62.5938" rx="2.5" ry="2.5" style="stroke:#000000;stroke-width:1;" width="107.1289" x="151.1163" y="428.6494"/><rect fill="#FFFFFF" height="10" style="stroke:#000000;stroke-width:1;" width="15" x="238.2452" y="433.6494"/><rect fill="#FFFFFF" height="2" style="stroke:#000000;stroke-width:1;" width="4" x="236.2452" y="435.6494"/><rect fill="#FFFFFF" height="2" style="stroke:#000000;stroke-width:1;" width="4" x="236.2452" y="439.6494"/><text fill="#000000" font-family="Verdana" font-size="14" font-style="italic" lengthAdjust="spacing" textLength="54.7422" x="172.3096" y="461.6445">&#171;Axios&#187;</text><text fill="#000000" font-family="Verdana" font-size="14" lengthAdjust="spacing" textLength="67.1289" x="166.1163" y="477.9414">API Client</text></g><!--entity Controllers--><g class="entity" data-qualified-name="Server Side .ASP.NET Core..WebAPI Layer.Controllers" data-source-line="16" id="ent0008"><rect fill="#FFFFFF" height="46.2969" rx="2.5" ry="2.5" style="stroke:#000000;stroke-width:1;" width="116.4668" x="377.4463" y="570.2394"/><rect fill="#FFFFFF" height="10" style="stroke:#000000;stroke-width:1;" width="15" x="473.9131" y="575.2394"/><rect fill="#FFFFFF" height="2" style="stroke:#000000;stroke-width:1;" width="4" x="471.9131" y="577.2394"/><rect fill="#FFFFFF" height="2" style="stroke:#000000;stroke-width:1;" width="4" x="471.9131" y="581.2394"/><text fill="#000000" font-family="Verdana" font-size="14" lengthAdjust="spacing" textLength="76.4668" x="392.4463" y="603.2345">Controllers</text></g><!--entity Auth--><g class="entity" data-qualified-name="Server Side .ASP.NET Core..WebAPI Layer.Auth" data-source-line="17" id="ent0009"><rect fill="#FFFFFF" height="46.2969" rx="2.5" ry="2.5" style="stroke:#000000;stroke-width:1;" width="151.6172" x="359.8663" y="436.7994"/><rect fill="#FFFFFF" height="10" style="stroke:#000000;stroke-width:1;" width="15" x="491.4835" y="441.7994"/><rect fill="#FFFFFF" height="2" style="stroke:#000000;stroke-width:1;" width="4" x="489.4835" y="443.7994"/><rect fill="#FFFFFF" height="2" style="stroke:#000000;stroke-width:1;" width="4" x="489.4835" y="447.7994"/><text fill="#000000" font-family="Verdana" font-size="14" lengthAdjust="spacing" textLength="111.6172" x="374.8663" y="469.7945">JWT Middleware</text></g><!--entity Hub--><g class="entity" data-qualified-name="Server Side .ASP.NET Core..WebAPI Layer.Hub" data-source-line="18" id="ent0010"><rect fill="#FFFFFF" height="46.2969" rx="2.5" ry="2.5" style="stroke:#000000;stroke-width:1;" width="125.4697" x="546.9463" y="436.7994"/><rect fill="#FFFFFF" height="10" style="stroke:#000000;stroke-width:1;" width="15" x="652.416" y="441.7994"/><rect fill="#FFFFFF" height="2" style="stroke:#000000;stroke-width:1;" width="4" x="650.416" y="443.7994"/><rect fill="#FFFFFF" height="2" style="stroke:#000000;stroke-width:1;" width="4" x="650.416" y="447.7994"/><text fill="#000000" font-family="Verdana" font-size="14" lengthAdjust="spacing" textLength="85.4697" x="561.9463" y="469.7945">SignalR Hub</text></g><!--entity CQRS--><g class="entity" data-qualified-name="Server Side .ASP.NET Core..Application Layer .CQRS..CQRS" data-source-line="22" id="ent0012"><rect fill="#FFFFFF" height="46.2969" rx="2.5" ry="2.5" style="stroke:#000000;stroke-width:1;" width="186.9248" x="359.2163" y="716.5394"/><rect fill="#FFFFFF" height="10" style="stroke:#000000;stroke-width:1;" width="15" x="526.1411" y="721.5394"/><rect fill="#FFFFFF" height="2" style="stroke:#000000;stroke-width:1;" width="4" x="524.1411" y="723.5394"/><rect fill="#FFFFFF" height="2" style="stroke:#000000;stroke-width:1;" width="4" x="524.1411" y="727.5394"/><text fill="#000000" font-family="Verdana" font-size="14" lengthAdjust="spacing" textLength="146.9248" x="374.2163" y="749.5345">Commands / Queries</text></g><!--entity Identity--><g class="entity" data-qualified-name="Server Side .ASP.NET Core..Infrastructure Layer.Identity" data-source-line="26" id="ent0014"><rect fill="#FFFFFF" height="46.2969" rx="2.5" ry="2.5" style="stroke:#000000;stroke-width:1;" width="164.7627" x="359.2963" y="862.8394"/><rect fill="#FFFFFF" height="10" style="stroke:#000000;stroke-width:1;" width="15" x="504.059" y="867.8394"/><rect fill="#FFFFFF" height="2" style="stroke:#000000;stroke-width:1;" width="4" x="502.059" y="869.8394"/><rect fill="#FFFFFF" height="2" style="stroke:#000000;stroke-width:1;" width="4" x="502.059" y="873.8394"/><text fill="#000000" font-family="Verdana" font-size="14" lengthAdjust="spacing" textLength="124.7627" x="374.2963" y="895.8345">Identity / Security</text></g><!--entity EF--><g class="entity" data-qualified-name="Server Side .ASP.NET Core..Infrastructure Layer.EF" data-source-line="27" id="ent0015"><rect fill="#FFFFFF" height="46.2969" rx="2.5" ry="2.5" style="stroke:#000000;stroke-width:1;" width="201" x="559.1763" y="862.8394"/><rect fill="#FFFFFF" height="10" style="stroke:#000000;stroke-width:1;" width="15" x="740.1763" y="867.8394"/><rect fill="#FFFFFF" height="2" style="stroke:#000000;stroke-width:1;" width="4" x="738.1763" y="869.8394"/><rect fill="#FFFFFF" height="2" style="stroke:#000000;stroke-width:1;" width="4" x="738.1763" y="873.8394"/><text fill="#000000" font-family="Verdana" font-size="14" lengthAdjust="spacing" textLength="161" x="574.1763" y="895.8345">Entity Framework Core</text></g><!--entity DB--><g class="entity" data-qualified-name="PostgreSQL.DB" data-source-line="32" id="ent0017"><rect fill="#FFFFFF" height="36.2969" rx="35" ry="35" style="stroke:#000000;stroke-width:1;" width="86.8008" x="616.2763" y="1048.1294"/><text fill="#000000" font-family="Verdana" font-size="14" lengthAdjust="spacing" textLength="66.8008" x="626.2763" y="1071.1245">Database</text></g><!--link UI to Store--><g class="link" data-entity-1="ent0003" data-entity-2="ent0004" data-link-type="dependency" data-source-line="35" id="lnk18"><path d="M192.6763,156.4394 C192.6763,179.2394 192.6763,204.2694 192.6763,227.0494" fill="none" id="UI-to-Store" style="stroke:#000000;stroke-width:1;"/><polygon fill="#000000" points="192.6763,233.0494,196.6763,224.0494,192.6763,228.0494,188.6763,224.0494,192.6763,233.0494" style="stroke:#000000;stroke-width:1;"/><text fill="#000000" font-family="Verdana" font-size="13" lengthAdjust="spacing" textLength="91.1206" x="193.6763" y="199.2663">State updates</text></g><!--link Store to Axios--><g class="link" data-entity-1="ent0004" data-entity-2="ent0005" data-link-type="dependency" data-source-line="36" id="lnk19"><path d="M194.5763,296.1494 C196.8263,332.3694 200.1636,386.291 202.4136,422.451" fill="none" id="Store-to-Axios" style="stroke:#000000;stroke-width:1;"/><polygon fill="#000000" points="202.7863,428.4394,206.2196,419.2083,202.4758,423.449,198.2351,419.7052,202.7863,428.4394" style="stroke:#000000;stroke-width:1;"/><text fill="#000000" font-family="Verdana" font-size="13" lengthAdjust="spacing" textLength="94.104" x="198.6763" y="338.8663">HTTP requests</text></g><!--link Axios to Controllers--><g class="link" data-entity-1="ent0005" data-entity-2="ent0008" data-link-type="dependency" data-source-line="37" id="lnk20"><path d="M240.1063,491.6694 C259.4963,507.4994 284.4463,526.3494 308.6763,540.2394 C330.0763,552.5094 349.3474,561.1966 371.3674,569.7966" fill="none" id="Axios-to-Controllers" style="stroke:#000000;stroke-width:1;"/><polygon fill="#000000" points="376.9563,571.9794,370.0281,564.9793,372.2989,570.1604,367.1178,572.4312,376.9563,571.9794" style="stroke:#000000;stroke-width:1;"/><text fill="#000000" font-family="Verdana" font-size="13" lengthAdjust="spacing" textLength="117.0889" x="309.6763" y="536.3063">HTTP / JSON (JWT)</text></g><!--link UI to Hub--><g class="link" data-entity-1="ent0003" data-entity-2="ent0010" data-link-type="dependency" data-source-line="39" id="lnk21"><path d="M256.5772,159.4243 C327.4772,198.3043 442.7163,267.5294 528.6763,350.7994 C555.9763,377.2394 577.9144,408.4706 592.7344,431.5506" fill="none" id="UI-Hub" style="stroke:#000000;stroke-width:1;"/><polygon fill="#000000" points="251.3163,156.5394,257.2843,164.3741,255.7003,158.9435,261.1309,157.3596,251.3163,156.5394" style="stroke:#000000;stroke-width:1;"/><polygon fill="#000000" points="595.9763,436.5994,594.4793,426.8649,593.2747,432.3921,587.7476,431.1875,595.9763,436.5994" style="stroke:#000000;stroke-width:1;"/><text fill="#000000" font-family="Verdana" font-size="13" lengthAdjust="spacing" textLength="143.7046" x="464.6763" y="269.0663">WebSocket / Realtime</text></g><!--link Controllers to CQRS--><g class="link" data-entity-1="ent0008" data-entity-2="ent0012" data-link-type="dependency" data-source-line="41" id="lnk22"><path d="M438.3363,616.9394 C441.5263,644.0494 446.1555,683.3004 449.3355,710.3404" fill="none" id="Controllers-to-CQRS" style="stroke:#000000;stroke-width:1;"/><polygon fill="#000000" points="450.0363,716.2994,452.9577,706.8938,449.4523,711.3336,445.0125,707.8282,450.0363,716.2994" style="stroke:#000000;stroke-width:1;"/><text fill="#000000" font-family="Verdana" font-size="13" lengthAdjust="spacing" textLength="53.1743" x="443.6763" y="661.6063">MediatR</text></g><!--link Auth to Controllers--><g class="link" data-entity-1="ent0009" data-entity-2="ent0008" data-link-type="dependency" data-source-line="42" id="lnk23"><path d="M435.6763,483.5394 C435.6763,507.7594 435.6763,539.9794 435.6763,564.0894" fill="none" id="Auth-to-Controllers" style="stroke:#000000;stroke-width:1;"/><polygon fill="#000000" points="435.6763,570.0894,439.6763,561.0894,435.6763,565.0894,431.6763,561.0894,435.6763,570.0894" style="stroke:#000000;stroke-width:1;"/><text fill="#000000" font-family="Verdana" font-size="13" lengthAdjust="spacing" textLength="87.0708" x="436.6763" y="536.3063">Authorization</text></g><!--link CQRS to EF--><g class="link" data-entity-1="ent0012" data-entity-2="ent0015" data-link-type="dependency" data-source-line="44" id="lnk24"><path d="M488.5463,763.1394 C503.5563,772.7094 521.0963,784.1194 536.6763,794.8394 C569.1763,817.1894 600.7202,840.4541 625.4102,859.0141" fill="none" id="CQRS-to-EF" style="stroke:#000000;stroke-width:1;"/><polygon fill="#000000" points="630.2063,862.6194,625.4157,854.0141,626.2096,859.615,620.6087,860.4088,630.2063,862.6194" style="stroke:#000000;stroke-width:1;"/><text fill="#000000" font-family="Verdana" font-size="13" lengthAdjust="spacing" textLength="78.9775" x="560.6763" y="807.9063">Data access</text></g><!--link CQRS to Identity--><g class="link" data-entity-1="ent0012" data-entity-2="ent0014" data-link-type="dependency" data-source-line="45" id="lnk25"><path d="M450.9563,763.2294 C448.8863,790.3394 445.902,829.5767 443.842,856.6167" fill="none" id="CQRS-to-Identity" style="stroke:#000000;stroke-width:1;"/><polygon fill="#000000" points="443.3863,862.5994,448.0584,853.9292,443.7661,857.6138,440.0815,853.3215,443.3863,862.5994" style="stroke:#000000;stroke-width:1;"/><text fill="#000000" font-family="Verdana" font-size="13" lengthAdjust="spacing" textLength="79.4346" x="448.6763" y="807.9063">Auth checks</text></g><!--link EF to DB--><g class="link" data-entity-1="ent0015" data-entity-2="ent0017" data-link-type="dependency" data-source-line="47" id="lnk26"><path d="M659.6763,909.5694 C659.6763,945.5494 659.6763,1009.1494 659.6763,1041.6994" fill="none" id="EF-to-DB" style="stroke:#000000;stroke-width:1;"/><polygon fill="#000000" points="659.6763,1047.6994,663.6763,1038.6994,659.6763,1042.6994,655.6763,1038.6994,659.6763,1047.6994" style="stroke:#000000;stroke-width:1;"/><text fill="#000000" font-family="Verdana" font-size="13" lengthAdjust="spacing" textLength="25.7271" x="660.6763" y="978.1963">SQL</text></g><?plantuml-src VPFRRXen48RlzoccNC556gcN4K8Y71GYaW9B5AbLBypk12psLDjRIgj8EJn9to1gIrMbDBo2UQEElGlPfgGWhTSptpypzio-K1CC4PA0ySYHKnubJB0Gl3XCuWWZvQfvW926mQk2Ds7Ub8qnymdq58l60HO0EM5-FEFH62vO8D5n55U4wY_hc_NL-bRVqtgxlj9te5UqFEXlPgENzFzjTle1z3szBFLA_z8BugyDIoRYLlPvjxxHF_NNHtwf5-jhuXPa-gv_q8uWnybhXL8Zu7GUSBcFK1uWy-YzLw-KuBC3zDkU6DxcP3r90kunnUFe7J09PnseLgsmLdigSHLJ22SiebGXMQp0LR50qhn99TsG_w-gtkj0bipozOyybiJRbUZBGlKkYWyeykhhRk_bQMi83Og_FS0MFSUH2TnbSnGRvzCJnf4ISH2Wa3PpORyBFpuVmWdt_G1dJ61MQweckr2NZoCM3E0e7LcELejTskVVXHOkEAiMoet-mAqyMtGOqZLAs8T-Ye9ZNZj9datHYIu4aqgadagf5_-xauvF2rTp2k-YbmfwjV4tzbsQLgPeqypZB1PJsn6hQhNpcgY9FbDin2ILqukb6Wjq-zrD4P9cn5RQpA6IKJSFZOu6Rc-lbe_H0MGpbYOK3gMJMOq_6vi3E1eEU_GrlazHAkbaLkClD7T3xSEn-_eKojJOYirJDI3rYW0Q7pVsfgY8ecaF50_f0ou6iK7frWa-GPypDN3CEEn8Pionu9ziZoc84HcgrIQdEJ4mpqCf7ptRBcHYy2ReJQNZaCAucuVc8lhTFm00?></g></svg>