<svg xmlns="http://www.w3.org/2000/svg" xmlns:xlink="http://www.w3.org/1999/xlink" contentStyleType="text/css" data-diagram-type="CLASS" height="794px" preserveAspectRatio="none" style="width:784px;height:794px;background:#FFFFFF;" version="1.1" viewBox="0 0 784 794" width="784px" zoomAndPan="magnify"><?plantuml 1.2026.3beta6?><defs/><g><g class="title" data-source-line="5"><text fill="#000000" font-family="Verdana" font-size="22" font-weight="700" lengthAdjust="spacing" textLength="752.6406" x="15" y="35.4209">ER-&#1076;&#1080;&#1072;&#1075;&#1088;&#1072;&#1084;&#1084;&#1072; &#1073;&#1072;&#1079;&#1099; &#1076;&#1072;&#1085;&#1085;&#1099;&#1093; &#1082;&#1086;&#1088;&#1087;&#1086;&#1088;&#1072;&#1090;&#1080;&#1074;&#1085;&#1086;&#1075;&#1086; &#1084;&#1077;&#1089;&#1089;&#1077;&#1085;&#1076;&#1078;&#1077;&#1088;&#1072;</text></g><!--class User--><g class="entity" data-qualified-name="User" data-source-line="7" id="ent0002"><rect fill="#FFFFFF" height="174.375" rx="2.5" ry="2.5" style="stroke:#000000;stroke-width:1;" width="207.0088" x="179.4696" y="58.6094"/><ellipse cx="206.3752" cy="72.6094" fill="#FFFFFF" rx="9" ry="9" style="stroke:#000000;stroke-width:1;"/><path d="M210.4846,78.6094 L202.7659,78.6094 L202.7659,66.2188 L210.4846,66.2188 L210.4846,68.375 L205.219,68.375 L205.219,71.0469 L209.9846,71.0469 L209.9846,73.2031 L205.219,73.2031 L205.219,76.4531 L210.4846,76.4531 L210.4846,78.6094 Z " fill="#000000"/><text fill="#000000" font-family="Verdana" font-size="14" lengthAdjust="spacing" textLength="148.1074" x="221.4654" y="77.4561">Users (DomainUsers)</text><line style="stroke:#000000;stroke-width:1;" x1="180.4696" x2="385.4784" y1="86.6094" y2="86.6094"/><g data-visibility-modifier="PUBLIC_FIELD"><ellipse cx="190.4696" cy="100.2578" fill="none" rx="3" ry="3" style="stroke:#000000;stroke-width:1;"/></g><text fill="#000000" font-family="Verdana" font-size="14" lengthAdjust="spacing" textLength="101.8418" x="197.4696" y="103.6045">Id : GUID &#171;PK&#187;</text><line style="stroke:#000000;stroke-width:1;" x1="180.4696" x2="385.4784" y1="110.9063" y2="110.9063"/><text fill="#000000" font-family="Verdana" font-size="14" lengthAdjust="spacing" textLength="195.0088" x="185.4696" y="127.9014">Username : string &#171;unique&#187;</text><text fill="#000000" font-family="Verdana" font-size="14" lengthAdjust="spacing" textLength="118.2139" x="185.4696" y="144.1982">Fullname : string</text><text fill="#000000" font-family="Verdana" font-size="14" lengthAdjust="spacing" textLength="162.2373" x="185.4696" y="160.4951">Email : string &#171;unique&#187;</text><text fill="#000000" font-family="Verdana" font-size="14" lengthAdjust="spacing" textLength="62.665" x="185.4696" y="176.792">Role : int</text><text fill="#000000" font-family="Verdana" font-size="14" lengthAdjust="spacing" textLength="127.3945" x="185.4696" y="193.0889">AvatarUrl : string?</text><text fill="#000000" font-family="Verdana" font-size="14" lengthAdjust="spacing" textLength="147.5947" x="185.4696" y="209.3857">CreatedAt : datetime</text><text fill="#000000" font-family="Verdana" font-size="14" lengthAdjust="spacing" textLength="158.9014" x="185.4696" y="225.6826">UpdatedAt : datetime?</text></g><!--class Chat--><g class="entity" data-qualified-name="Chat" data-source-line="19" id="ent0003"><rect fill="#FFFFFF" height="125.4844" rx="2.5" ry="2.5" style="stroke:#000000;stroke-width:1;" width="170.9014" x="443.5196" y="83.0594"/><ellipse cx="505.2149" cy="97.0594" fill="#FFFFFF" rx="9" ry="9" style="stroke:#000000;stroke-width:1;"/><path d="M509.3243,103.0594 L501.6056,103.0594 L501.6056,90.6687 L509.3243,90.6687 L509.3243,92.825 L504.0587,92.825 L504.0587,95.4969 L508.8243,95.4969 L508.8243,97.6531 L504.0587,97.6531 L504.0587,100.9031 L509.3243,100.9031 L509.3243,103.0594 Z " fill="#000000"/><text fill="#000000" font-family="Verdana" font-size="14" lengthAdjust="spacing" textLength="40.0107" x="522.7149" y="101.9061">Chats</text><line style="stroke:#000000;stroke-width:1;" x1="444.5196" x2="613.421" y1="111.0594" y2="111.0594"/><g data-visibility-modifier="PUBLIC_FIELD"><ellipse cx="454.5196" cy="124.7078" fill="none" rx="3" ry="3" style="stroke:#000000;stroke-width:1;"/></g><text fill="#000000" font-family="Verdana" font-size="14" lengthAdjust="spacing" textLength="101.8418" x="461.5196" y="128.0545">Id : GUID &#171;PK&#187;</text><line style="stroke:#000000;stroke-width:1;" x1="444.5196" x2="613.421" y1="135.3562" y2="135.3562"/><text fill="#000000" font-family="Verdana" font-size="14" lengthAdjust="spacing" textLength="91.6699" x="449.5196" y="152.3514">Title : string?</text><text fill="#000000" font-family="Verdana" font-size="14" lengthAdjust="spacing" textLength="66.2061" x="449.5196" y="168.6482">Type : int</text><text fill="#000000" font-family="Verdana" font-size="14" lengthAdjust="spacing" textLength="147.5947" x="449.5196" y="184.9451">CreatedAt : datetime</text><text fill="#000000" font-family="Verdana" font-size="14" lengthAdjust="spacing" textLength="158.9014" x="449.5196" y="201.242">UpdatedAt : datetime?</text></g><!--class ChatMember--><g class="entity" data-qualified-name="ChatMember" data-source-line="28" id="ent0004"><rect fill="#FFFFFF" height="158.0781" rx="2.5" ry="2.5" style="stroke:#000000;stroke-width:1;" width="208.3965" x="290.7696" y="292.9894"/><ellipse cx="342.4195" cy="306.9894" fill="#FFFFFF" rx="9" ry="9" style="stroke:#000000;stroke-width:1;"/><path d="M346.5289,312.9894 L338.8102,312.9894 L338.8102,300.5988 L346.5289,300.5988 L346.5289,302.755 L341.2633,302.755 L341.2633,305.4269 L346.0289,305.4269 L346.0289,307.5831 L341.2633,307.5831 L341.2633,310.8331 L346.5289,310.8331 L346.5289,312.9894 Z " fill="#000000"/><text fill="#000000" font-family="Verdana" font-size="14" lengthAdjust="spacing" textLength="97.5967" x="359.9195" y="311.8361">ChatMembers</text><line style="stroke:#000000;stroke-width:1;" x1="291.7696" x2="498.1661" y1="320.9894" y2="320.9894"/><g data-visibility-modifier="PUBLIC_FIELD"><ellipse cx="301.7696" cy="334.6378" fill="none" rx="3" ry="3" style="stroke:#000000;stroke-width:1;"/></g><text fill="#000000" font-family="Verdana" font-size="14" lengthAdjust="spacing" textLength="101.8418" x="308.7696" y="337.9845">Id : GUID &#171;PK&#187;</text><line style="stroke:#000000;stroke-width:1;" x1="291.7696" x2="498.1661" y1="345.2863" y2="345.2863"/><text fill="#000000" font-family="Verdana" font-size="14" lengthAdjust="spacing" textLength="133.3623" x="296.7696" y="362.2814">UserId : GUID &#171;FK&#187;</text><text fill="#000000" font-family="Verdana" font-size="14" lengthAdjust="spacing" textLength="134.1689" x="296.7696" y="378.5782">ChatId : GUID &#171;FK&#187;</text><text fill="#000000" font-family="Verdana" font-size="14" lengthAdjust="spacing" textLength="62.665" x="296.7696" y="394.8751">Role : int</text><text fill="#000000" font-family="Verdana" font-size="14" lengthAdjust="spacing" textLength="134.8389" x="296.7696" y="411.172">JoinedAt : datetime</text><text fill="#000000" font-family="Verdana" font-size="14" lengthAdjust="spacing" textLength="196.3965" x="296.7696" y="427.4689">LastReadMessageId : GUID?</text><text fill="#000000" font-family="Verdana" font-size="14" lengthAdjust="spacing" textLength="156.8506" x="296.7696" y="443.7657">LastReadAt : datetime</text></g><!--class Message--><g class="entity" data-qualified-name="Message" data-source-line="39" id="ent0005"><rect fill="#FFFFFF" height="239.5625" rx="2.5" ry="2.5" style="stroke:#000000;stroke-width:1;" width="227.9951" x="280.9696" y="511.0694"/><ellipse cx="356.8905" cy="525.0694" fill="#FFFFFF" rx="9" ry="9" style="stroke:#000000;stroke-width:1;"/><path d="M360.9999,531.0694 L353.2812,531.0694 L353.2812,518.6788 L360.9999,518.6788 L360.9999,520.835 L355.7343,520.835 L355.7343,523.5069 L360.4999,523.5069 L360.4999,525.6631 L355.7343,525.6631 L355.7343,528.9131 L360.9999,528.9131 L360.9999,531.0694 Z " fill="#000000"/><text fill="#000000" font-family="Verdana" font-size="14" lengthAdjust="spacing" textLength="68.6533" x="374.3905" y="529.9161">Messages</text><line style="stroke:#000000;stroke-width:1;" x1="281.9696" x2="507.9647" y1="539.0694" y2="539.0694"/><g data-visibility-modifier="PUBLIC_FIELD"><ellipse cx="291.9696" cy="552.7178" fill="none" rx="3" ry="3" style="stroke:#000000;stroke-width:1;"/></g><text fill="#000000" font-family="Verdana" font-size="14" lengthAdjust="spacing" textLength="101.8418" x="298.9696" y="556.0645">Id : GUID &#171;PK&#187;</text><line style="stroke:#000000;stroke-width:1;" x1="281.9696" x2="507.9647" y1="563.3663" y2="563.3663"/><text fill="#000000" font-family="Verdana" font-size="14" lengthAdjust="spacing" textLength="116.915" x="286.9696" y="580.3614">Content : string?</text><text fill="#000000" font-family="Verdana" font-size="14" lengthAdjust="spacing" textLength="66.2061" x="286.9696" y="596.6582">Type : int</text><text fill="#000000" font-family="Verdana" font-size="14" lengthAdjust="spacing" textLength="102.5254" x="286.9696" y="612.9551">IsPinned : bool</text><text fill="#000000" font-family="Verdana" font-size="14" lengthAdjust="spacing" textLength="105.5742" x="286.9696" y="629.252">FileUrl : string?</text><text fill="#000000" font-family="Verdana" font-size="14" lengthAdjust="spacing" textLength="126.9844" x="286.9696" y="645.5489">FileName : string?</text><text fill="#000000" font-family="Verdana" font-size="14" lengthAdjust="spacing" textLength="104.4463" x="286.9696" y="661.8457">FileSize : long?</text><text fill="#000000" font-family="Verdana" font-size="14" lengthAdjust="spacing" textLength="151.0811" x="286.9696" y="678.1426">SenderId : GUID &#171;FK&#187;</text><text fill="#000000" font-family="Verdana" font-size="14" lengthAdjust="spacing" textLength="134.1689" x="286.9696" y="694.4395">ChatId : GUID &#171;FK&#187;</text><text fill="#000000" font-family="Verdana" font-size="14" lengthAdjust="spacing" textLength="215.9951" x="286.9696" y="710.7364">ParentMessageId : GUID? &#171;FK&#187;</text><text fill="#000000" font-family="Verdana" font-size="14" lengthAdjust="spacing" textLength="147.5947" x="286.9696" y="727.0332">CreatedAt : datetime</text><text fill="#000000" font-family="Verdana" font-size="14" lengthAdjust="spacing" textLength="158.9014" x="286.9696" y="743.3301">UpdatedAt : datetime?</text></g><!--link User to ChatMember--><g class="link" data-entity-1="ent0002" data-entity-2="ent0004" data-link-type="crowfoot" data-source-line="59" id="lnk6"><path codeLine="59" d="M338.6196,241.2694 C338.6196,260.7894 338.6196,255.3794 338.6196,274.5594" fill="none" id="User-ChatMember" style="stroke:#000000;stroke-width:1;"/><line style="stroke:#000000;stroke-width:1;" x1="334.6196" x2="342.6196" y1="237.2694" y2="237.2694"/><line style="stroke:#000000;stroke-width:1;" x1="334.6196" x2="342.6196" y1="240.2694" y2="240.2694"/><line style="stroke:#000000;stroke-width:1;" x1="338.6196" x2="338.6196" y1="241.2694" y2="233.2694"/><line style="stroke:#000000;stroke-width:1;" x1="338.6196" x2="344.6196" y1="284.5594" y2="292.5594"/><line style="stroke:#000000;stroke-width:1;" x1="338.6196" x2="332.6196" y1="284.5594" y2="292.5594"/><line style="stroke:#000000;stroke-width:1;" x1="338.6196" x2="338.6196" y1="284.5594" y2="292.5594"/><ellipse cx="338.6196" cy="278.5594" fill="none" rx="4" ry="4" style="stroke:#000000;stroke-width:1;"/><text fill="#000000" font-family="Verdana" font-size="13" lengthAdjust="spacing" textLength="77.1177" x="260.6196" y="258.9763">participates</text></g><!--link Chat to ChatMember--><g class="link" data-entity-1="ent0003" data-entity-2="ent0004" data-link-type="crowfoot" data-source-line="60" id="lnk7"><path codeLine="60" d="M471.3396,216.8194 C471.3396,242.8394 471.3396,247.2794 471.3396,274.7894" fill="none" id="Chat-ChatMember" style="stroke:#000000;stroke-width:1;"/><line style="stroke:#000000;stroke-width:1;" x1="467.3396" x2="475.3396" y1="212.8194" y2="212.8194"/><line style="stroke:#000000;stroke-width:1;" x1="467.3396" x2="475.3396" y1="215.8194" y2="215.8194"/><line style="stroke:#000000;stroke-width:1;" x1="471.3396" x2="471.3396" y1="216.8194" y2="208.8194"/><line style="stroke:#000000;stroke-width:1;" x1="471.3396" x2="477.3396" y1="284.7894" y2="292.7894"/><line style="stroke:#000000;stroke-width:1;" x1="471.3396" x2="465.3396" y1="284.7894" y2="292.7894"/><line style="stroke:#000000;stroke-width:1;" x1="471.3396" x2="471.3396" y1="284.7894" y2="292.7894"/><ellipse cx="471.3396" cy="278.7894" fill="none" rx="4" ry="4" style="stroke:#000000;stroke-width:1;"/><text fill="#000000" font-family="Verdana" font-size="13" lengthAdjust="spacing" textLength="22.9785" x="448.3396" y="246.8663">has</text></g><!--link Chat to Message--><g class="link" data-entity-1="ent0003" data-entity-2="ent0005" data-link-type="crowfoot" data-source-line="62" id="lnk8"><path codeLine="62" d="M504.0696,216.7194 C504.0696,292.9694 504.0696,397.1294 504.0696,492.8094" fill="none" id="Chat-Message" style="stroke:#000000;stroke-width:1;"/><line style="stroke:#000000;stroke-width:1;" x1="500.0696" x2="508.0696" y1="212.7194" y2="212.7194"/><line style="stroke:#000000;stroke-width:1;" x1="500.0696" x2="508.0696" y1="215.7194" y2="215.7194"/><line style="stroke:#000000;stroke-width:1;" x1="504.0696" x2="504.0696" y1="216.7194" y2="208.7194"/><line style="stroke:#000000;stroke-width:1;" x1="504.0696" x2="510.0696" y1="502.8094" y2="510.8094"/><line style="stroke:#000000;stroke-width:1;" x1="504.0696" x2="498.0696" y1="502.8094" y2="510.8094"/><line style="stroke:#000000;stroke-width:1;" x1="504.0696" x2="504.0696" y1="502.8094" y2="510.8094"/><ellipse cx="504.0696" cy="496.8094" fill="none" rx="4" ry="4" style="stroke:#000000;stroke-width:1;"/><text fill="#000000" font-family="Verdana" font-size="13" lengthAdjust="spacing" textLength="55.0278" x="505.0696" y="355.8263">contains</text></g><!--link User to Message--><g class="link" data-entity-1="ent0002" data-entity-2="ent0005" data-link-type="crowfoot" data-source-line="63" id="lnk9"><path codeLine="63" d="M287.5096,241.3594 C287.5096,318.8594 287.5096,406.6794 287.5096,492.6794" fill="none" id="User-Message" style="stroke:#000000;stroke-width:1;"/><line style="stroke:#000000;stroke-width:1;" x1="283.5096" x2="291.5096" y1="237.3594" y2="237.3594"/><line style="stroke:#000000;stroke-width:1;" x1="283.5096" x2="291.5096" y1="240.3594" y2="240.3594"/><line style="stroke:#000000;stroke-width:1;" x1="287.5096" x2="287.5096" y1="241.3594" y2="233.3594"/><line style="stroke:#000000;stroke-width:1;" x1="287.5096" x2="293.5096" y1="502.6794" y2="510.6794"/><line style="stroke:#000000;stroke-width:1;" x1="287.5096" x2="281.5096" y1="502.6794" y2="510.6794"/><line style="stroke:#000000;stroke-width:1;" x1="287.5096" x2="287.5096" y1="502.6794" y2="510.6794"/><ellipse cx="287.5096" cy="496.6794" fill="none" rx="4" ry="4" style="stroke:#000000;stroke-width:1;"/><text fill="#000000" font-family="Verdana" font-size="13" lengthAdjust="spacing" textLength="38.0352" x="248.5096" y="368.0863">sends</text></g><!--link Message to Message--><g class="link" data-entity-1="ent0005" data-entity-2="ent0005" data-link-type="crowfoot" data-source-line="65" id="lnk10"><path codeLine="65" d="M284.2396,502.7594 C284.2396,485.5994 284.2396,481.6294 284.2396,481.6294 C284.2396,481.6294 230.2196,481.6294 230.2196,481.6294 C230.2196,481.6294 230.2196,768.6294 230.2196,768.6294 C230.2196,768.6294 394.9696,768.6294 394.9696,768.6294 C394.9696,768.6294 394.9696,779.6794 394.9696,768.8994" fill="none" id="Message-Message" style="stroke:#000000;stroke-width:1;"/><line style="stroke:#000000;stroke-width:1;" x1="288.2396" x2="280.2396" y1="506.7594" y2="506.7594"/><line style="stroke:#000000;stroke-width:1;" x1="288.2396" x2="280.2396" y1="503.7594" y2="503.7594"/><line style="stroke:#000000;stroke-width:1;" x1="284.2396" x2="284.2396" y1="502.7594" y2="510.7594"/><line style="stroke:#000000;stroke-width:1;" x1="394.9696" x2="388.9696" y1="758.8994" y2="750.8994"/><line style="stroke:#000000;stroke-width:1;" x1="394.9696" x2="400.9696" y1="758.8994" y2="750.8994"/><line style="stroke:#000000;stroke-width:1;" x1="394.9696" x2="394.9696" y1="758.8994" y2="750.8994"/><ellipse cx="394.9696" cy="764.8994" fill="none" rx="4" ry="4" style="stroke:#000000;stroke-width:1;"/><text fill="#000000" font-family="Verdana" font-size="13" lengthAdjust="spacing" textLength="52.4507" x="172.2196" y="665.8663">reply_to</text></g><!--link ChatMember to Message--><g class="link" data-entity-1="ent0004" data-entity-2="ent0005" data-link-type="crowfoot" data-source-line="67" id="lnk11"><path codeLine="67" d="M394.9696,469.4394 C394.9696,488.1694 394.9696,482.5394 394.9696,502.6194" fill="none" id="ChatMember-Message" style="stroke:#000000;stroke-width:1;"/><line style="stroke:#000000;stroke-width:1;" x1="394.9696" x2="388.9696" y1="459.4394" y2="451.4394"/><line style="stroke:#000000;stroke-width:1;" x1="394.9696" x2="400.9696" y1="459.4394" y2="451.4394"/><line style="stroke:#000000;stroke-width:1;" x1="394.9696" x2="394.9696" y1="459.4394" y2="451.4394"/><ellipse cx="394.9696" cy="465.4394" fill="none" rx="4" ry="4" style="stroke:#000000;stroke-width:1;"/><line style="stroke:#000000;stroke-width:1;" x1="398.9696" x2="390.9696" y1="506.6194" y2="506.6194"/><line style="stroke:#000000;stroke-width:1;" x1="398.9696" x2="390.9696" y1="503.6194" y2="503.6194"/><line style="stroke:#000000;stroke-width:1;" x1="394.9696" x2="394.9696" y1="502.6194" y2="510.6194"/><text fill="#000000" font-family="Verdana" font-size="13" lengthAdjust="spacing" textLength="59.5093" x="334.9696" y="477.0963">last_read</text></g><?plantuml-src fLJTRjCm5BxtKnns0mZb1QgoQkesL62ewjRhoLiEYuLZ1zi5bNKIG-9g5pm3Rr3smoR4oYiuRyHnqgu9NHaJhMJvVDztSdwJ1ox1526JN2XctmYLSSDJi0cFzNkX3k0rbnOhZ1GAtJ13qCObcZ4dd4JOw4N-t5_viJ_BFzBva_vZyD_eUfcV075ZV-slyvFyC_WVVaAYNyKvpZ-HsocH4t_c9q1-5_bnVkml23httyaY4MEeAD0GLleMZOL7wpgbX0lZyGfm2-4AXmpW2NHYQC2pVcSTcitkYzLL0gE8ZY1Hd8fjW7KcrDPi3fHuEy12ipcGiaOJja5Hv19zJykW5SgHiVQEEsxwPYvk4Teso1t6QuxGc6vEf1WIoU85kCMEvaMs4-viKLQutL7MJZ60QjYTC9vPPl-JmnQcUzJXcqnA-n_QNEKsIoxutmBNklXSqt8jfFgIMzT37c-XjVm0RnxIgd1rdqePKwUoXgbnHm5jhHovBszfntQ5eaG9sDDQXjqH4lySVi1ULVTf1cwB3m6KkeIsKSNtwLYN6yfkeHaLltjE_24yNVOZpd_rf_aNV-cl_YfanGiu6aMHFgpkIWFei-74liWef6N5Fj-cIhXbDNOsgmRiqppePRUr47FQKl_8TmOiy0OpETnrkdpyDE2HZgBHgAAIj4YxrBZuDm00?></g></svg>